<svg xmlns="http://www.w3.org/2000/svg" xmlns:xlink="http://www.w3.org/1999/xlink" width="500" zoomAndPan="magnify" viewBox="0 0 375 374.999991" height="500" preserveAspectRatio="xMidYMid meet" version="1.2"><defs><clipPath id="9c1ed0db5a"><path d="M 21.398438 142.6875 L 111.027344 142.6875 L 111.027344 232.3125 L 21.398438 232.3125 Z M 21.398438 142.6875 "/></clipPath><clipPath id="d1be3c88ec"><path d="M 66.214844 142.6875 C 78.097656 142.6875 89.496094 147.40625 97.902344 155.8125 C 106.304688 164.214844 111.027344 175.613281 111.027344 187.5 C 111.027344 199.386719 106.304688 210.785156 97.902344 219.1875 C 89.496094 227.59375 78.097656 232.3125 66.214844 232.3125 C 54.328125 232.3125 42.929688 227.59375 34.527344 219.1875 C 26.121094 210.785156 21.398438 199.386719 21.398438 187.5 C 21.398438 175.613281 26.121094 164.214844 34.527344 155.8125 C 42.929688 147.40625 54.328125 142.6875 66.214844 142.6875 Z M 66.214844 142.6875 "/></clipPath></defs><g id="cf661f6f17"><rect x="0" width="375" y="0" height="374.999991" style="fill:#ffffff;fill-opacity:1;stroke:none;"/><rect x="0" width="375" y="0" height="374.999991" style="fill:#ffffff;fill-opacity:1;stroke:none;"/><g clip-rule="nonzero" clip-path="url(#9c1ed0db5a)"><g clip-rule="nonzero" clip-path="url(#d1be3c88ec)"><path style=" stroke:none;fill-rule:nonzero;fill:#ff5c00;fill-opacity:1;" d="M 21.398438 142.6875 L 111.027344 142.6875 L 111.027344 232.3125 L 21.398438 232.3125 Z M 21.398438 142.6875 "/></g></g><g style="fill:#000000;fill-opacity:1;"><g transform="translate(47.598312, 209.885977)"><path style="stroke:none" d="M 10.296875 1.140625 C 8.929688 1.140625 7.734375 0.664062 6.703125 -0.28125 C 5.671875 -1.238281 5.15625 -2.363281 5.15625 -3.65625 L 5.15625 -39.265625 C 5.15625 -41.484375 5.800781 -43.21875 7.09375 -44.46875 C 8.394531 -45.726562 10.113281 -46.359375 12.25 -46.359375 L 30.109375 -46.359375 C 31.640625 -46.359375 32.820312 -45.9375 33.65625 -45.09375 C 34.5 -44.257812 34.921875 -43.117188 34.921875 -41.671875 C 34.921875 -40.367188 34.460938 -39.257812 33.546875 -38.34375 C 32.628906 -37.4375 31.484375 -36.984375 30.109375 -36.984375 L 17.75 -36.984375 C 16.21875 -36.984375 15.453125 -36.21875 15.453125 -34.6875 L 15.453125 -29.53125 C 15.453125 -28.007812 16.21875 -27.25 17.75 -27.25 L 28.5 -27.25 C 29.957031 -27.25 31.125 -26.828125 32 -25.984375 C 32.875 -25.148438 33.3125 -24.046875 33.3125 -22.671875 C 33.3125 -21.367188 32.832031 -20.28125 31.875 -19.40625 C 30.925781 -18.53125 29.800781 -18.09375 28.5 -18.09375 L 17.75 -18.09375 C 16.21875 -18.09375 15.453125 -17.328125 15.453125 -15.796875 L 15.453125 -3.65625 C 15.453125 -2.363281 14.9375 -1.238281 13.90625 -0.28125 C 12.875 0.664062 11.671875 1.140625 10.296875 1.140625 Z M 10.296875 1.140625 "/></g></g><g style="fill:#000000;fill-opacity:1;"><g transform="translate(124.758937, 209.934881)"><path style="stroke:none" d="M 9.125 1.140625 C 8.132812 1.140625 7.21875 0.773438 6.375 0.046875 C 5.539062 -0.671875 5.125 -1.523438 5.125 -2.515625 L 5.125 -39.671875 C 5.125 -41.421875 5.710938 -42.84375 6.890625 -43.9375 C 8.066406 -45.039062 9.457031 -45.59375 11.0625 -45.59375 L 28.84375 -45.59375 C 30.132812 -45.59375 31.0625 -45.25 31.625 -44.5625 C 32.195312 -43.882812 32.484375 -43.050781 32.484375 -42.0625 C 32.484375 -41.070312 32.140625 -40.234375 31.453125 -39.546875 C 30.773438 -38.867188 29.90625 -38.53125 28.84375 -38.53125 L 16.078125 -38.53125 C 14.097656 -38.53125 13.109375 -37.539062 13.109375 -35.5625 L 13.109375 -29.0625 C 13.109375 -27.09375 14.019531 -26.109375 15.84375 -26.109375 L 27.8125 -26.109375 C 29.101562 -26.109375 30.035156 -25.742188 30.609375 -25.015625 C 31.179688 -24.296875 31.46875 -23.484375 31.46875 -22.578125 C 31.46875 -21.660156 31.125 -20.835938 30.4375 -20.109375 C 29.75 -19.390625 28.875 -19.03125 27.8125 -19.03125 L 15.84375 -19.03125 C 14.019531 -19.03125 13.109375 -18.082031 13.109375 -16.1875 L 13.109375 -2.515625 C 13.109375 -1.523438 12.707031 -0.671875 11.90625 0.046875 C 11.113281 0.773438 10.1875 1.140625 9.125 1.140625 Z M 9.125 1.140625 "/></g></g><g style="fill:#000000;fill-opacity:1;"><g transform="translate(160.09892, 209.934881)"><path style="stroke:none" d="M 8.546875 1.140625 C 7.554688 1.140625 6.660156 0.832031 5.859375 0.21875 C 5.066406 -0.382812 4.671875 -1.253906 4.671875 -2.390625 L 4.671875 -29.75 C 4.671875 -31.039062 5.066406 -32.007812 5.859375 -32.65625 C 6.660156 -33.300781 7.554688 -33.625 8.546875 -33.625 C 9.535156 -33.625 10.425781 -33.300781 11.21875 -32.65625 C 12.019531 -32.007812 12.421875 -31.039062 12.421875 -29.75 L 12.421875 -2.390625 C 12.421875 -1.253906 12.019531 -0.382812 11.21875 0.21875 C 10.425781 0.832031 9.535156 1.140625 8.546875 1.140625 Z M 8.65625 -39.90625 C 7.21875 -39.90625 5.984375 -40.378906 4.953125 -41.328125 C 3.929688 -42.273438 3.421875 -43.429688 3.421875 -44.796875 C 3.421875 -46.085938 3.929688 -47.207031 4.953125 -48.15625 C 5.984375 -49.113281 7.21875 -49.59375 8.65625 -49.59375 C 10.03125 -49.59375 11.210938 -49.113281 12.203125 -48.15625 C 13.191406 -47.207031 13.6875 -46.085938 13.6875 -44.796875 C 13.6875 -43.429688 13.191406 -42.273438 12.203125 -41.328125 C 11.210938 -40.378906 10.03125 -39.90625 8.65625 -39.90625 Z M 8.65625 -39.90625 "/></g></g><g style="fill:#000000;fill-opacity:1;"><g transform="translate(177.19891, 209.934881)"><path style="stroke:none" d="M 17.4375 1.140625 C 14.476562 1.140625 12.046875 0.226562 10.140625 -1.59375 C 8.242188 -3.414062 7.296875 -6.148438 7.296875 -9.796875 L 7.296875 -24.28125 C 7.296875 -25.039062 6.914062 -25.421875 6.15625 -25.421875 L 4.109375 -25.421875 C 3.117188 -25.421875 2.28125 -25.742188 1.59375 -26.390625 C 0.90625 -27.035156 0.5625 -27.851562 0.5625 -28.84375 C 0.5625 -29.90625 0.90625 -30.773438 1.59375 -31.453125 C 2.28125 -32.140625 3.117188 -32.484375 4.109375 -32.484375 L 6.15625 -32.484375 C 6.914062 -32.484375 7.296875 -32.863281 7.296875 -33.625 L 7.296875 -43.203125 C 7.296875 -44.265625 7.65625 -45.117188 8.375 -45.765625 C 9.101562 -46.410156 10 -46.734375 11.0625 -46.734375 C 12.195312 -46.734375 13.125 -46.410156 13.84375 -45.765625 C 14.570312 -45.117188 14.9375 -44.265625 14.9375 -43.203125 L 14.9375 -33.625 C 14.9375 -32.863281 15.316406 -32.484375 16.078125 -32.484375 L 22.234375 -32.484375 C 23.140625 -32.484375 23.9375 -32.140625 24.625 -31.453125 C 25.3125 -30.773438 25.65625 -29.90625 25.65625 -28.84375 C 25.65625 -27.851562 25.332031 -27.035156 24.6875 -26.390625 C 24.039062 -25.742188 23.179688 -25.421875 22.109375 -25.421875 L 16.078125 -25.421875 C 15.316406 -25.421875 14.9375 -25.039062 14.9375 -24.28125 L 14.9375 -10.828125 C 14.9375 -7.640625 16.226562 -6.046875 18.8125 -6.046875 C 19.570312 -6.046875 20.367188 -6.15625 21.203125 -6.375 C 22.035156 -6.601562 22.601562 -6.71875 22.90625 -6.71875 C 23.976562 -6.71875 24.796875 -6.375 25.359375 -5.6875 C 25.929688 -5.007812 26.21875 -4.21875 26.21875 -3.3125 C 26.21875 -2.625 26.023438 -1.957031 25.640625 -1.3125 C 25.265625 -0.664062 24.660156 -0.191406 23.828125 0.109375 C 22.992188 0.410156 21.945312 0.65625 20.6875 0.84375 C 19.4375 1.039062 18.351562 1.140625 17.4375 1.140625 Z M 17.4375 1.140625 "/></g></g><g style="fill:#000000;fill-opacity:1;"><g transform="translate(204.558905, 209.934881)"><path style="stroke:none" d="M 9.125 1.140625 C 8.132812 1.140625 7.21875 0.773438 6.375 0.046875 C 5.539062 -0.671875 5.125 -1.523438 5.125 -2.515625 L 5.125 -39.671875 C 5.125 -41.421875 5.710938 -42.84375 6.890625 -43.9375 C 8.066406 -45.039062 9.457031 -45.59375 11.0625 -45.59375 L 28.84375 -45.59375 C 30.132812 -45.59375 31.0625 -45.25 31.625 -44.5625 C 32.195312 -43.882812 32.484375 -43.050781 32.484375 -42.0625 C 32.484375 -41.070312 32.140625 -40.234375 31.453125 -39.546875 C 30.773438 -38.867188 29.90625 -38.53125 28.84375 -38.53125 L 16.078125 -38.53125 C 14.097656 -38.53125 13.109375 -37.539062 13.109375 -35.5625 L 13.109375 -29.0625 C 13.109375 -27.09375 14.019531 -26.109375 15.84375 -26.109375 L 27.8125 -26.109375 C 29.101562 -26.109375 30.035156 -25.742188 30.609375 -25.015625 C 31.179688 -24.296875 31.46875 -23.484375 31.46875 -22.578125 C 31.46875 -21.660156 31.125 -20.835938 30.4375 -20.109375 C 29.75 -19.390625 28.875 -19.03125 27.8125 -19.03125 L 15.84375 -19.03125 C 14.019531 -19.03125 13.109375 -18.082031 13.109375 -16.1875 L 13.109375 -2.515625 C 13.109375 -1.523438 12.707031 -0.671875 11.90625 0.046875 C 11.113281 0.773438 10.1875 1.140625 9.125 1.140625 Z M 9.125 1.140625 "/></g></g><g style="fill:#000000;fill-opacity:1;"><g transform="translate(239.898888, 209.934881)"><path style="stroke:none" d="M 8.4375 1.140625 C 7.445312 1.140625 6.550781 0.832031 5.75 0.21875 C 4.957031 -0.382812 4.5625 -1.253906 4.5625 -2.390625 L 4.5625 -45.71875 C 4.5625 -47.007812 4.957031 -47.976562 5.75 -48.625 C 6.550781 -49.269531 7.445312 -49.59375 8.4375 -49.59375 C 9.425781 -49.59375 10.316406 -49.269531 11.109375 -48.625 C 11.910156 -47.976562 12.3125 -47.007812 12.3125 -45.71875 L 12.3125 -2.390625 C 12.3125 -1.253906 11.910156 -0.382812 11.109375 0.21875 C 10.316406 0.832031 9.425781 1.140625 8.4375 1.140625 Z M 8.4375 1.140625 "/></g></g><g style="fill:#000000;fill-opacity:1;"><g transform="translate(256.998877, 209.934881)"><path style="stroke:none" d="M 19.953125 1.140625 C 16.609375 1.140625 13.585938 0.378906 10.890625 -1.140625 C 8.191406 -2.660156 6.082031 -4.769531 4.5625 -7.46875 C 3.039062 -10.164062 2.28125 -13.1875 2.28125 -16.53125 C 2.28125 -19.800781 3.039062 -22.726562 4.5625 -25.3125 C 6.082031 -27.894531 8.191406 -29.925781 10.890625 -31.40625 C 13.585938 -32.882812 16.609375 -33.625 19.953125 -33.625 C 23.296875 -33.625 26.296875 -32.882812 28.953125 -31.40625 C 31.617188 -29.925781 33.726562 -27.894531 35.28125 -25.3125 C 36.84375 -22.726562 37.625 -19.800781 37.625 -16.53125 C 37.625 -13.1875 36.84375 -10.164062 35.28125 -7.46875 C 33.726562 -4.769531 31.617188 -2.660156 28.953125 -1.140625 C 26.296875 0.378906 23.296875 1.140625 19.953125 1.140625 Z M 19.953125 -5.921875 C 22.910156 -5.921875 25.300781 -6.890625 27.125 -8.828125 C 28.957031 -10.765625 29.875 -13.332031 29.875 -16.53125 C 29.875 -19.570312 28.957031 -22.003906 27.125 -23.828125 C 25.300781 -25.648438 22.910156 -26.5625 19.953125 -26.5625 C 16.910156 -26.5625 14.492188 -25.648438 12.703125 -23.828125 C 10.921875 -22.003906 10.03125 -19.570312 10.03125 -16.53125 C 10.03125 -13.332031 10.921875 -10.765625 12.703125 -8.828125 C 14.492188 -6.890625 16.910156 -5.921875 19.953125 -5.921875 Z M 19.953125 -5.921875 "/></g></g><g style="fill:#000000;fill-opacity:1;"><g transform="translate(295.758858, 209.934881)"><path style="stroke:none" d="M 13.796875 1.140625 C 10.828125 1.140625 8.960938 -0.265625 8.203125 -3.078125 L 1.25 -28.609375 C 1.175781 -28.835938 1.140625 -29.066406 1.140625 -29.296875 C 1.140625 -29.523438 1.140625 -29.71875 1.140625 -29.875 C 1.140625 -30.9375 1.5 -31.828125 2.21875 -32.546875 C 2.945312 -33.265625 3.878906 -33.625 5.015625 -33.625 C 5.847656 -33.625 6.625 -33.414062 7.34375 -33 C 8.070312 -32.582031 8.507812 -31.957031 8.65625 -31.125 L 12.875 -11.28125 C 13.03125 -10.445312 13.375 -10.03125 13.90625 -10.03125 C 14.4375 -10.03125 14.816406 -10.445312 15.046875 -11.28125 L 20.96875 -28.84375 C 21.351562 -29.90625 22 -30.679688 22.90625 -31.171875 C 23.820312 -31.671875 24.773438 -31.921875 25.765625 -31.921875 C 26.753906 -31.921875 27.6875 -31.671875 28.5625 -31.171875 C 29.4375 -30.679688 30.023438 -29.90625 30.328125 -28.84375 L 36.25 -11.28125 C 36.476562 -10.445312 36.859375 -10.03125 37.390625 -10.03125 C 37.921875 -10.03125 38.265625 -10.445312 38.421875 -11.28125 L 42.640625 -31.125 C 42.785156 -31.957031 43.21875 -32.582031 43.9375 -33 C 44.664062 -33.414062 45.445312 -33.625 46.28125 -33.625 C 47.425781 -33.625 48.359375 -33.265625 49.078125 -32.546875 C 49.796875 -31.828125 50.15625 -30.9375 50.15625 -29.875 C 50.15625 -29.71875 50.15625 -29.523438 50.15625 -29.296875 C 50.15625 -29.066406 50.117188 -28.835938 50.046875 -28.609375 L 43.09375 -3.078125 C 42.332031 -0.265625 40.46875 1.140625 37.5 1.140625 C 36.207031 1.140625 35.046875 0.742188 34.015625 -0.046875 C 32.992188 -0.847656 32.296875 -1.859375 31.921875 -3.078125 L 26.671875 -19.71875 C 26.367188 -20.707031 26.03125 -21.203125 25.65625 -21.203125 C 25.195312 -21.203125 24.816406 -20.707031 24.515625 -19.71875 L 19.375 -3.078125 C 19 -1.859375 18.296875 -0.847656 17.265625 -0.046875 C 16.242188 0.742188 15.085938 1.140625 13.796875 1.140625 Z M 13.796875 1.140625 "/></g></g></g></svg>